# xmcd
#
# Track frame offsets:
#	150
#	11710
#	22404
#	31696
#	41828
#	52279
#	63383
#	73509
#	85172
#	95337
#	104489
#	114427
#	126812
#	136234
#	147145
#	158822
#	169454
#	178544
#	188196
#	200584
#
# Disc length: 2817 seconds
#
# Revision: 0
# Processed by: cddbd v1.5.2PL0 Copyright (c) Steve Scherf et al.
# Submitted via: FairStars CD Ripper 1.80
#
DISCID=230aff14
DTITLE=Lloyd Price - Singles Collection cd1
DYEAR=2015
DGENRE=Soul
TTITLE0=Personality
TTITLE1=Stagger Lee
TTITLE2=Come Into My Heart
TTITLE3=The Chicken And The Bop
TTITLE4=For Love
TTITLE5=Oo-Ee Baby
TTITLE6=Counterfeit Friends
TTITLE7=Three Little Pigs
TTITLE8=Baby Please Come Home
TTITLE9=How Many Times
TTITLE10=Mary And Man-O
TTITLE11=Talk To Me
TTITLE12=If I Look A Little Blue
TTITLE13=So Long
TTITLE14=Under Your Spell Again
TTITLE15=Such A Mess
TTITLE16=I'm Glad, Glad
TTITLE17=Boo Hoo
TTITLE18=Just Because
TTITLE19=(You Better) Know What You're Doin'
EXTD=
EXTT0=
EXTT1=
EXTT2=
EXTT3=
EXTT4=
EXTT5=
EXTT6=
EXTT7=
EXTT8=
EXTT9=
EXTT10=
EXTT11=
EXTT12=
EXTT13=
EXTT14=
EXTT15=
EXTT16=
EXTT17=
EXTT18=
EXTT19=
PLAYORDER=
